<svg fill="none" height="20" viewBox="0 0 17 20" width="17" xmlns="http://www.w3.org/2000/svg">
    <path clip-rule="evenodd" d="M8.49998 0.399902C5.84901 0.399902 3.69998 2.54894 3.69998 5.1999V6.3999H2.49998C1.88852 6.3999 1.37485 6.85967 1.30732 7.46738L0.107321 18.2674C0.0696271 18.6066 0.178186 18.9459 0.405828 19.2002C0.633469 19.4545 0.95865 19.5999 1.29998 19.5999H15.7C16.0413 19.5999 16.3665 19.4545 16.5941 19.2002C16.8218 18.9459 16.9303 18.6066 16.8926 18.2674L15.6926 7.46738C15.6251 6.85967 15.1114 6.3999 14.5 6.3999H13.3V5.1999C13.3 2.54894 11.1509 0.399902 8.49998 0.399902ZM10.9 6.3999V5.1999C10.9 3.87442 9.82546 2.7999 8.49998 2.7999C7.17449 2.7999 6.09998 3.87442 6.09998 5.1999V6.3999H10.9ZM3.69998 9.9999C3.69998 9.33716 4.23723 8.7999 4.89998 8.7999C5.56272 8.7999 6.09998 9.33716 6.09998 9.9999C6.09998 10.6626 5.56272 11.1999 4.89998 11.1999C4.23723 11.1999 3.69998 10.6626 3.69998 9.9999ZM12.1 8.7999C11.4372 8.7999 10.9 9.33716 10.9 9.9999C10.9 10.6626 11.4372 11.1999 12.1 11.1999C12.7627 11.1999 13.3 10.6626 13.3 9.9999C13.3 9.33716 12.7627 8.7999 12.1 8.7999Z"
        fill="#C2C2C2"
        fill-rule="evenodd" />
</svg>
