<svg style="enable-background:new 0 0 512 512;" version="1.1" viewBox="0 0 512 640" x="0px" xmlns="http://www.w3.org/2000/svg" y="0px"
    xml:space="preserve"><g><path d="M490.5,178.2l-69-50.2v-88c0-11.9-9.7-21.6-21.6-21.6H112.1c-11.9,0-21.6,9.7-21.6,21.6v81.7l-69.3,56.7   c-1.7,1.4-2.6,3.4-2.6,5.6v273.5c0,19.8,16.1,36,36,36h403c19.8,0,36-16.1,36-36V184C493.5,181.7,492.4,179.6,490.5,178.2z    M104.9,212.8V40.1c0-4,3.2-7.2,7.2-7.2h287.9c4,0,7.2,3.2,7.2,7.2v172.7h14.4v-67l52.6,38.3L256,346.5L37.4,183.8l53.1-43.4v72.5   H104.9z M457.5,479.1h-403c-11.9,0-21.6-9.7-21.6-21.6V198.4l146.4,109l-123,138.2l10.8,9.6L190.9,316l60.8,45.3   c2.6,1.9,6,1.9,8.6,0l60.8-45.3l123.9,139.1l10.8-9.6l-123-138.2l146.4-109v259.2C479.1,469.4,469.4,479.1,457.5,479.1z"/><rect
    height="14.4" width="28.8" x="148" y="443.1" /><rect height="14.4" width="172.7" x="191.2"
    y="443.1" /><rect height="14.4" width="172.7" x="148" y="414.3" /><rect height="14.4" width="28.8"
    x="335.2" y="414.3" /><path
    d="M133.7,169.6h244.7c4,0,7.2-3.2,7.2-7.2V61.7c0-4-3.2-7.2-7.2-7.2H133.7c-4,0-7.2,3.2-7.2,7.2v100.8   C126.5,166.4,129.7,169.6,133.7,169.6z M140.8,68.9h230.3v86.4H140.8V68.9z" /><polygon
    points="210.7,95.6 200.5,85.4 191.2,94.7 191.2,83.3 176.8,83.3 176.8,94.7 167.5,85.4 157.4,95.6 166.7,104.9    155.2,104.9 155.2,119.3 166.7,119.3 157.4,128.6 167.5,138.7 176.8,129.4 176.8,140.8 191.2,140.8 191.2,129.4 200.5,138.7    210.7,128.6 201.4,119.3 212.8,119.3 212.8,104.9 201.4,104.9  " /><polygon
    points="282.7,95.6 272.5,85.4 263.2,94.7 263.2,83.3 248.8,83.3 248.8,94.7 239.5,85.4 229.3,95.6 238.6,104.9    227.2,104.9 227.2,119.3 238.6,119.3 229.3,128.6 239.5,138.7 248.8,129.4 248.8,140.8 263.2,140.8 263.2,129.4 272.5,138.7    282.7,128.6 273.4,119.3 284.8,119.3 284.8,104.9 273.4,104.9  " /><polygon
    points="354.6,95.6 344.5,85.4 335.2,94.7 335.2,83.3 320.8,83.3 320.8,94.7 311.5,85.4 301.3,95.6 310.6,104.9    299.2,104.9 299.2,119.3 310.6,119.3 301.3,128.6 311.5,138.7 320.8,129.4 320.8,140.8 335.2,140.8 335.2,129.4 344.5,138.7    354.6,128.6 345.3,119.3 356.8,119.3 356.8,104.9 345.3,104.9  " /><path
    d="M284.8,213c0-16.5-13.3-28.9-28.8-28.9c-15.5,0-28.8,12.5-28.8,28.9c-12.4,0.8-21.2,11.4-20.1,23.4l3.4,37.3   c1.7,18.7,17.1,32.7,35.8,32.7h19.4c18.7,0,34.1-14.1,35.8-32.7l3.4-37.3C306,224.4,297.2,213.8,284.8,213z M256,198.4   c7.9,0,14.4,6.5,14.4,14.4h-28.8C241.6,204.9,248.1,198.4,256,198.4z M287.2,272.3c-1,11.2-10.3,19.6-21.5,19.6h-19.4   c-11.2,0-20.5-8.4-21.5-19.6l-3.4-37.3c-0.4-4.2,2.9-7.8,7.2-7.8h54.8c4.2,0,7.6,3.6,7.2,7.8L287.2,272.3z" /><rect
    height="36" width="14.4" x="248.8" y="241.6" /></g>
   </svg>