<svg fill="none" height="220" viewBox="0 0 292 220" width="292" xmlns="http://www.w3.org/2000/svg">
    <circle cx="146.078" cy="103.5" fill="#FFAF0B" fill-opacity="0.14" r="103.5" />
    <circle cx="39.3438" cy="32.3438" fill="#FE8C00" r="9.70312" />
    <circle cx="34.4922" cy="181.125" fill="#FE8C00" r="12.9375" />
    <circle cx="265.75" cy="58.2188" fill="#FE8C00" r="12.9375" />
    <circle cx="247.961" cy="14.5547" fill="#FE8C00" r="8.08594" />
    <g filter="url(#filter0_dd_1007_9214)">
        <path clip-rule="evenodd" d="M149.312 25.875C127.536 25.875 108.272 36.6359 96.549 53.1305C92.721 52.2277 88.7288 51.75 84.625 51.75C56.0443 51.75 32.875 74.9193 32.875 103.5C32.875 132.081 56.0443 155.25 84.625 155.25H214C239.008 155.25 259.281 134.977 259.281 109.969C259.281 84.9606 239.008 64.6875 214 64.6875C212.224 64.6875 210.471 64.7898 208.748 64.9888C198.836 41.9816 175.955 25.875 149.312 25.875Z"
            fill="#F9F5FF"
            fill-rule="evenodd" />
        <circle cx="84.625" cy="103.5" fill="url(#paint0_linear_1007_9214)" r="51.75" />
        <circle cx="149.312" cy="90.5625" fill="url(#paint1_linear_1007_9214)" r="64.6875" />
        <circle cx="214" cy="109.969" fill="url(#paint2_linear_1007_9214)" r="45.2812" />
    </g>
    <rect fill="#FE8C00" height="90.5625" rx="45.2812" width="90.5625" x="100.797" y="97.0312" />
    <path
        d="M163.059 159.293L156.455 152.689M161.172 141.369C161.172 150.226 153.992 157.406 145.135 157.406C136.278 157.406 129.098 150.226 129.098 141.369C129.098 132.512 136.278 125.332 145.135 125.332C153.992 125.332 161.172 132.512 161.172 141.369Z"
        stroke="white" stroke-linecap="round" stroke-linejoin="round" stroke-width="3.23438" />
    <defs>
        <filter color-interpolation-filters="sRGB" filterUnits="userSpaceOnUse" height="194.062" id="filter0_dd_1007_9214" width="291.094"
            x="0.53125" y="25.875">
            <feFlood flood-opacity="0" result="BackgroundImageFix" />
            <feColorMatrix in="SourceAlpha" result="hardAlpha"
                type="matrix" values="0 0 0 0 0 0 0 0 0 0 0 0 0 0 0 0 0 0 127 0" />
            <feMorphology in="SourceAlpha" operator="erode" radius="6.46875"
                result="effect1_dropShadow_1007_9214" />
            <feOffset dy="12.9375" />
            <feGaussianBlur stdDeviation="6.46875" />
            <feColorMatrix type="matrix"
                values="0 0 0 0 0.0627451 0 0 0 0 0.0941176 0 0 0 0 0.156863 0 0 0 0.03 0" />
            <feBlend in2="BackgroundImageFix" mode="normal" result="effect1_dropShadow_1007_9214" />
            <feColorMatrix in="SourceAlpha" result="hardAlpha"
                type="matrix" values="0 0 0 0 0 0 0 0 0 0 0 0 0 0 0 0 0 0 127 0" />
            <feMorphology in="SourceAlpha" operator="erode" radius="6.46875"
                result="effect2_dropShadow_1007_9214" />
            <feOffset dy="32.3438" />
            <feGaussianBlur stdDeviation="19.4062" />
            <feColorMatrix type="matrix"
                values="0 0 0 0 0.0627451 0 0 0 0 0.0941176 0 0 0 0 0.156863 0 0 0 0.08 0" />
            <feBlend in2="effect1_dropShadow_1007_9214" mode="normal"
                result="effect2_dropShadow_1007_9214" />
            <feBlend in="SourceGraphic" in2="effect2_dropShadow_1007_9214" mode="normal"
                result="shape" />
        </filter>
        <linearGradient gradientUnits="userSpaceOnUse" id="paint0_linear_1007_9214" x1="44.8884" x2="136.375"
            y1="69.308" y2="155.25">
            <stop stop-color="#FFAF0B" stop-opacity="0.44" />
            <stop offset="0.997917" stop-color="white" stop-opacity="0" />
        </linearGradient>
        <linearGradient gradientUnits="userSpaceOnUse" id="paint1_linear_1007_9214" x1="99.6417" x2="214" y1="47.8225"
            y2="155.25">
            <stop stop-color="#FFAF0B" stop-opacity="0.44" />
            <stop offset="0.997917" stop-color="white" stop-opacity="0" />
        </linearGradient>
        <linearGradient gradientUnits="userSpaceOnUse" id="paint2_linear_1007_9214" x1="179.23" x2="259.281"
            y1="80.0508" y2="155.25">
            <stop stop-color="#FFAF0B" stop-opacity="0.44" />
            <stop offset="0.997917" stop-color="white" stop-opacity="0" />
        </linearGradient>
    </defs>
</svg>
