<svg fill="none" height="20" viewBox="0 0 20 20" width="20" xmlns="http://www.w3.org/2000/svg">
    <path
        d="M11.0152 0.751374C10.5465 0.282745 9.78675 0.282745 9.31812 0.751374L0.918122 9.15137C0.449493 9.62 0.449493 10.3798 0.918122 10.8484C1.38675 11.3171 2.14655 11.3171 2.61518 10.8484L2.96665 10.497V18.3999C2.96665 19.0626 3.50391 19.5999 4.16665 19.5999H6.56665C7.22939 19.5999 7.76665 19.0626 7.76665 18.3999V15.9999C7.76665 15.3372 8.30391 14.7999 8.96665 14.7999H11.3667C12.0294 14.7999 12.5667 15.3372 12.5667 15.9999V18.3999C12.5667 19.0626 13.1039 19.5999 13.7667 19.5999H16.1667C16.8294 19.5999 17.3667 19.0626 17.3667 18.3999V10.497L17.7181 10.8484C18.1868 11.3171 18.9466 11.3171 19.4152 10.8484C19.8838 10.3798 19.8838 9.62 19.4152 9.15137L11.0152 0.751374Z"
        fill="#C2C2C2" />
</svg>
