<svg width="18" height="18" viewBox="0 0 18 18" fill="none" xmlns="http://www.w3.org/2000/svg">
<path fill-rule="evenodd" clip-rule="evenodd" d="M5.11143 2.18208C5.78129 2.12863 6.41722 1.86522 6.92868 1.42935C8.12223 0.412221 9.87769 0.412221 11.0712 1.42935C11.5827 1.86522 12.2186 2.12863 12.8885 2.18208C14.4517 2.30683 15.693 3.54812 15.8177 5.11131C15.8712 5.78117 16.1346 6.4171 16.5704 6.92856C17.5876 8.12211 17.5876 9.87757 16.5704 11.0711C16.1346 11.5826 15.8712 12.2185 15.8177 12.8884C15.693 14.4516 14.4517 15.6928 12.8885 15.8176C12.2186 15.871 11.5827 16.1345 11.0712 16.5703C9.87769 17.5875 8.12223 17.5875 6.92868 16.5703C6.41722 16.1345 5.78129 15.871 5.11143 15.8176C3.54825 15.6928 2.30695 14.4516 2.18221 12.8884C2.12875 12.2185 1.86534 11.5826 1.42948 11.0711C0.412343 9.87757 0.412343 8.12211 1.42948 6.92856C1.86534 6.4171 2.12875 5.78117 2.18221 5.11131C2.30695 3.54812 3.54825 2.30683 5.11143 2.18208ZM12.7752 6.10845C13.0193 5.86437 13.0193 5.46864 12.7752 5.22456C12.5312 4.98048 12.1354 4.98048 11.8914 5.22456L5.22468 11.8912C4.98061 12.1353 4.98061 12.531 5.22468 12.7751C5.46876 13.0192 5.86449 13.0192 6.10857 12.7751L12.7752 6.10845ZM6.49996 5.45817C5.92466 5.45817 5.45829 5.92454 5.45829 6.49984C5.45829 7.07513 5.92466 7.5415 6.49996 7.5415C7.07526 7.5415 7.54163 7.07513 7.54163 6.49984C7.54163 5.92454 7.07526 5.45817 6.49996 5.45817ZM11.5 10.4582C10.9247 10.4582 10.4583 10.9245 10.4583 11.4998C10.4583 12.0751 10.9247 12.5415 11.5 12.5415C12.0753 12.5415 12.5416 12.0751 12.5416 11.4998C12.5416 10.9245 12.0753 10.4582 11.5 10.4582Z" fill="#FE8C00"/>
</svg>
