<svg width="12" height="12" viewBox="0 0 12 12" fill="none" xmlns="http://www.w3.org/2000/svg">
<path d="M11.4156 4.32735L7.94434 3.82286L6.39258 0.676958C6.35019 0.590825 6.28047 0.521099 6.19433 0.478716C5.97832 0.372075 5.71582 0.460943 5.60781 0.676958L4.05605 3.82286L0.584764 4.32735C0.489061 4.34102 0.401561 4.38614 0.334568 4.4545C0.253579 4.53774 0.20895 4.64973 0.210488 4.76586C0.212026 4.88199 0.259605 4.99276 0.342772 5.07383L2.8543 7.52247L2.26094 10.9801C2.24702 11.0605 2.25592 11.1432 2.28663 11.2189C2.31733 11.2945 2.36862 11.36 2.43466 11.408C2.50071 11.4559 2.57887 11.4845 2.66029 11.4903C2.74171 11.4961 2.82313 11.4789 2.89531 11.4408L6.00019 9.8084L9.10508 11.4408C9.18984 11.4859 9.28828 11.501 9.38262 11.4846C9.62051 11.4436 9.78047 11.218 9.73945 10.9801L9.14609 7.52247L11.6576 5.07383C11.726 5.00684 11.7711 4.91934 11.7848 4.82364C11.8217 4.58438 11.6549 4.3629 11.4156 4.32735V4.32735Z" fill="#FE8C00"/>
</svg>
