<svg width="20" height="20" viewBox="0 0 20 20" fill="none" xmlns="http://www.w3.org/2000/svg">
<path d="M19.98 9.40995C19.64 3.60995 14.37 -0.860038 8.30004 0.139962C4.12004 0.829962 0.770048 4.21994 0.120049 8.39994C-0.259951 10.8199 0.24007 13.1099 1.33007 14.9999L0.440056 18.3099C0.240056 19.0599 0.930036 19.7399 1.67004 19.5299L4.93005 18.63C6.41005 19.5 8.14004 19.9999 9.99004 19.9999C15.63 19.9999 20.31 15.03 19.98 9.40995ZM14.8801 13.7199C14.7901 13.8999 14.68 14.07 14.54 14.23C14.29 14.5 14.02 14.7 13.72 14.82C13.42 14.95 13.09 15.01 12.74 15.01C12.23 15.01 11.68 14.89 11.11 14.64C10.53 14.39 9.96007 14.0599 9.39007 13.6499C8.81007 13.2299 8.27005 12.7599 7.75005 12.2499C7.23005 11.7299 6.77003 11.1799 6.35003 10.6099C5.94003 10.0399 5.61005 9.46994 5.37005 8.89994C5.13005 8.32994 5.01006 7.77996 5.01006 7.25996C5.01006 6.91996 5.07006 6.58996 5.19006 6.28996C5.31006 5.97996 5.50007 5.69996 5.77007 5.44996C6.09007 5.12996 6.44005 4.97996 6.81005 4.97996C6.95005 4.97996 7.09002 5.00995 7.22002 5.06995C7.35002 5.12995 7.47005 5.21995 7.56005 5.34995L8.72002 6.98994C8.81002 7.11994 8.88004 7.22994 8.92004 7.33994C8.97004 7.44994 8.99004 7.54994 8.99004 7.64994C8.99004 7.76994 8.95006 7.88996 8.88006 8.00996C8.81006 8.12996 8.72003 8.24994 8.60003 8.36994L8.22002 8.76994C8.16002 8.82994 8.14007 8.88995 8.14007 8.96995C8.14007 9.00995 8.15003 9.04994 8.16003 9.08994C8.18003 9.12994 8.19007 9.15995 8.20007 9.18995C8.29007 9.35995 8.45004 9.56993 8.67004 9.82993C8.90004 10.0899 9.14008 10.3599 9.40008 10.6199C9.67008 10.8899 9.93007 11.1299 10.2001 11.3599C10.4601 11.5799 10.68 11.73 10.85 11.82C10.88 11.83 10.9101 11.8499 10.9401 11.8599C10.9801 11.8799 11.0201 11.88 11.0701 11.88C11.1601 11.88 11.2201 11.85 11.2801 11.79L11.66 11.41C11.79 11.28 11.9101 11.19 12.0201 11.13C12.1401 11.06 12.2501 11.0199 12.3801 11.0199C12.4801 11.0199 12.5801 11.0399 12.6901 11.0899C12.8001 11.1399 12.92 11.2 13.04 11.29L14.7001 12.4699C14.8301 12.5599 14.92 12.67 14.98 12.79C15.03 12.92 15.0601 13.0399 15.0601 13.1799C15.0001 13.3499 14.9601 13.5399 14.8801 13.7199Z" fill="#101010"/>
</svg>
